{
  "asset": {
    "generator": "glTF-Transform v2.0.0-alpha.3",
    "version": "2.0"
  },
  "accessors": [
    {
      "name": "mesh-0-0_Accessor_POSITION",
      "type": "VEC3",
      "componentType": 5126,
      "count": 55381,
      "max": [
        599.3590087890625,
        -33.72303009033203,
        561.3590087890625
      ],
      "min": [
        -527.3590087890625,
        -104.39354705810547,
        -495.3590087890625
      ],
      "bufferView": 0,
      "byteOffset": 0
    },
    {
      "name": "mesh-0-0_Accessor_TEXCOORD_0",
      "type": "VEC2",
      "componentType": 5126,
      "count": 55381,
      "bufferView": 0,
      "byteOffset": 12
    },
    {
      "name": "mesh-1-0_Accessor_POSITION",
      "type": "VEC3",
      "componentType": 5126,
      "count": 30806,
      "max": [
        599.3590087890625,
        -26.287290573120117,
        561.3590087890625
      ],
      "min": [
        -527.3590087890625,
        -105.48443603515625,
        -495.3590087890625
      ],
      "bufferView": 1,
      "byteOffset": 0
    },
    {
      "name": "mesh-1-0_Accessor_TEXCOORD_0",
      "type": "VEC2",
      "componentType": 5126,
      "count": 30806,
      "bufferView": 1,
      "byteOffset": 12
    },
    {
      "name": "mesh-0-0_Accessor_indices",
      "type": "SCALAR",
      "componentType": 5123,
      "count": 151158,
      "bufferView": 2,
      "byteOffset": 0
    },
    {
      "name": "mesh-1-0_Accessor_indices",
      "type": "SCALAR",
      "componentType": 5123,
      "count": 58476,
      "bufferView": 2,
      "byteOffset": 302316
    }
  ],
  "bufferViews": [
    {
      "buffer": 0,
      "byteOffset": 0,
      "byteLength": 1107620,
      "byteStride": 20,
      "target": 34962
    },
    {
      "buffer": 0,
      "byteOffset": 1107620,
      "byteLength": 616120,
      "byteStride": 20,
      "target": 34962
    },
    {
      "buffer": 0,
      "byteOffset": 1723740,
      "byteLength": 419268,
      "target": 34963
    }
  ],
  "samplers": [
    {
      "magFilter": 9729,
      "minFilter": 9729,
      "wrapS": 33071,
      "wrapT": 33071
    }
  ],
  "textures": [
    {
      "sampler": 0,
      "extensions": {
        "KHR_texture_basisu": {
          "source": 0
        }
      }
    }
  ],
  "images": [
    {
      "name": "textureAtlasImage",
      "mimeType": "image/ktx2",
      "uri": "textureAtlasImage.ktx2"
    }
  ],
  "buffers": [
    {
      "name": "mesh-0-0_Buffer_POSITION",
      "uri": "mesh-0-0_Buffer_POSITION.bin",
      "byteLength": 2143008
    }
  ],
  "materials": [
    {
      "name": "Texture",
      "pbrMetallicRoughness": {
        "metallicFactor": 0,
        "baseColorTexture": {
          "index": 0
        }
      },
      "emissiveTexture": {
        "index": 0
      }
    }
  ],
  "meshes": [
    {
      "name": "mesh-split_1",
      "primitives": [
        {
          "attributes": {
            "POSITION": 0,
            "TEXCOORD_0": 1
          },
          "mode": 4,
          "material": 0,
          "indices": 4
        }
      ]
    },
    {
      "name": "mesh-split_2",
      "primitives": [
        {
          "attributes": {
            "POSITION": 2,
            "TEXCOORD_0": 3
          },
          "mode": 4,
          "material": 0,
          "indices": 5
        }
      ]
    }
  ],
  "nodes": [
    {
      "name": "rootNode_0",
      "mesh": 0,
      "children": [
        1
      ]
    },
    {
      "mesh": 1
    }
  ],
  "scenes": [
    {
      "name": "scene",
      "nodes": [
        0
      ]
    }
  ],
  "scene": 0,
  "extensionsUsed": [
    "KHR_texture_basisu"
  ],
  "extensionsRequired": [
    "KHR_texture_basisu"
  ]
}
